<svg aria-hidden="true" style="position: absolute; width: 0; height: 0; overflow: hidden;" version="1.1" xmlns="http://www.w3.org/2000/svg" xmlns:xlink="http://www.w3.org/1999/xlink">
<defs>
<symbol id="icon-burger" viewBox="0 0 32 32">
<path fill="none" stroke="#fff" style="stroke: var(--color1, #fff)" stroke-linejoin="miter" stroke-linecap="butt" stroke-miterlimit="4" stroke-width="2.1818" d="M1.455 4.364h29.091"></path>
<path fill="none" stroke="#fff" style="stroke: var(--color1, #fff)" stroke-linejoin="miter" stroke-linecap="butt" stroke-miterlimit="4" stroke-width="2.1818" d="M8 16h16"></path>
<path fill="none" stroke="#fff" style="stroke: var(--color1, #fff)" stroke-linejoin="miter" stroke-linecap="butt" stroke-miterlimit="4" stroke-width="2.1818" d="M1.455 27.636h29.091"></path>
</symbol>
<symbol id="icon-plus" viewBox="0 0 36 32">
<path  d="M21.141 16.188l7.146-7.146-3.176-3.176-7.145 7.146-7.146-7.146-3.176 3.176 7.146 7.146-7.146 7.146 3.176 3.176 7.145-7.145 7.145 7.145 3.176-3.176-7.145-7.145z"></path>
</symbol>
<symbol id="icon-minus" viewBox="0 0 96 32">
<path fill="#fff" style="fill: var(--color1, #fff)" d="M8.533 29.867v-19.84h83.84v19.84h-83.84z"></path>
</symbol>
<symbol id="icon-Vector-3-1" viewBox="0 0 18 32">
<path d="M0.999151 1L6.73828 7L0.99915 13" stroke="black"/>
</symbol>
<symbol id="icon-close" viewBox="0 0 32 32">
<path stroke-linejoin="miter" stroke-linecap="butt" stroke-miterlimit="4" stroke-width="1.1852" d="M30.938 0.419l-29.332 29.332"></path>
<path stroke-linejoin="miter" stroke-linecap="butt" stroke-miterlimit="4" stroke-width="1.1852" d="M30.248 30.492l-29.332-29.332"></path>
</symbol>
<symbol id="ico" viewBox="0 0 33 32">
<path d="M56.3136 54.599L55.1283 53.4697C54.5631 52.7211 53.9313 52.0253 53.2406 51.3907L53.229 51.3814C52.5321 50.7482 51.808 50.1462 51.0566 49.5754C50.4546 49.1616 49.6271 48.663 48.574 48.0797C47.7195 47.7004 47.0383 47.0143 46.6653 46.157L46.656 46.1337L46.544 46.0777C47.0386 46.0287 47.4913 45.9377 47.9253 45.8094L47.8716 45.8233L49.2016 45.457C49.7523 45.2844 50.3893 45.1724 51.0496 45.1467H51.0636C51.759 45.1187 52.4146 45.0067 53.04 44.8224L52.9816 44.8364C53.2834 44.7617 53.5938 44.6769 53.9126 44.582C54.2315 44.4871 54.5045 44.4024 54.7316 44.3277V43.9333C54.5061 43.5958 54.2331 43.21 53.9126 42.776C53.6154 42.3699 53.2681 42.003 52.879 41.684L52.8673 41.6747C51.8889 40.8098 50.8754 39.9729 49.827 39.164C48.8441 38.4003 47.8231 37.687 46.768 37.0267L46.6093 36.9334C46.0008 36.5356 45.3563 36.1958 44.6843 35.9184L44.605 35.8904C43.9081 35.6072 43.2213 35.2969 42.5446 34.9594C42.3009 34.84 42.0451 34.7469 41.7816 34.6817L41.756 34.677C41.4928 34.6247 41.2546 34.4859 41.0793 34.2827L41.077 34.2804C40.746 33.8409 40.4679 33.3639 40.2486 32.8594L40.23 32.8127C40.0044 32.2854 39.7602 31.779 39.4973 31.2937C38.9326 30.2017 38.3866 29.0918 37.8593 27.964C37.332 26.8362 36.8256 25.7069 36.3403 24.576C36.0028 23.8231 35.6924 23.071 35.4093 22.3197C35.123 21.5538 34.7627 20.8177 34.3336 20.1217L34.364 20.1754C33.4342 18.5812 32.3965 17.0524 31.2583 15.5997L31.3236 15.6884C30.2821 14.3692 29.1442 13.1292 27.9193 11.9784L27.9006 11.962C26.696 10.8318 25.4244 9.77523 24.0926 8.79802L23.9783 8.71635C22.5845 7.70369 21.0601 6.70658 19.405 5.72502C18.7014 5.31467 17.9434 5.00595 17.1533 4.80802L17.0926 4.79402L14.4956 4.14535L13.028 4.03335C12.5395 3.99602 12.0503 3.97735 11.5603 3.97735C11.2299 3.80442 10.9258 3.58521 10.6573 3.32635C10.3978 3.07949 10.1227 2.84957 9.83364 2.63802L9.81031 2.62169C8.29462 1.74706 6.69826 1.02038 5.04331 0.451687L4.84498 0.391021C4.43339 0.155545 3.97411 0.0156643 3.50114 -0.0182635C3.02817 -0.0521914 2.55362 0.0207025 2.11264 0.195021L2.13364 0.188021C1.6994 0.358312 1.30804 0.622237 0.987413 0.961009C0.66679 1.29978 0.424791 1.70507 0.278643 2.14802L0.271643 2.17135C0.0240361 2.76596 -0.0564094 3.41691 0.0389956 4.0539C0.134401 4.6909 0.40203 5.28972 0.812976 5.78569L0.808309 5.77869C1.65453 6.90647 2.3032 7.79313 2.75431 8.43869C3.09187 8.89135 3.44031 9.36191 3.79964 9.85035C4.12864 10.289 4.42031 10.7907 4.65598 11.3204L4.67464 11.3694C4.80531 11.647 4.91964 11.9784 5.00364 12.319L5.01064 12.3564C5.08531 12.6768 5.17942 13.0252 5.29298 13.4017C5.63053 14.2666 5.9502 15.1532 6.25198 16.0617C6.58098 17.0534 6.94498 17.8934 7.36731 18.6937L7.32298 18.6004C7.54853 19.0141 7.77487 19.4186 8.00198 19.8137C8.22909 20.2088 8.47331 20.5946 8.73464 20.971C8.88284 21.1946 9.07399 21.3866 9.29698 21.5357L9.30398 21.5404C9.42083 21.6242 9.51706 21.7335 9.58538 21.86C9.65371 21.9866 9.69232 22.127 9.69831 22.2707C9.42301 22.6796 9.24942 23.1507 9.19198 23.6404L9.18964 23.6544C9.11644 24.204 8.99702 24.7465 8.83264 25.276L8.85131 25.206C8.30243 26.8865 8.02594 28.6439 8.03231 30.4117C8.03231 31.0137 8.06264 31.6064 8.12564 32.192L8.11864 32.1197C8.25864 34.355 8.93298 36.4084 10.0133 38.1864L9.98064 38.128C10.4403 38.8164 10.9326 39.416 11.4763 39.9644C11.7921 40.3196 12.2176 40.5592 12.6852 40.645C13.1527 40.7308 13.6356 40.658 14.057 40.438L14.0453 40.4427C14.4496 40.3002 14.8024 40.0406 15.0588 39.6969C15.3152 39.3533 15.4635 38.9412 15.485 38.513V38.5084C15.597 37.4024 15.765 36.413 15.996 35.447L15.9656 35.6034C16.0248 35.446 16.0548 35.2791 16.0543 35.111L16.0496 35.006V35.0107C16.031 34.8411 16.1344 34.6809 16.36 34.53V34.642C16.5855 35.1694 16.8204 35.6959 17.0646 36.2217C17.3089 36.7475 17.5624 37.274 17.8253 37.8013C18.5136 38.849 19.244 39.7637 20.0466 40.606L20.0396 40.599C20.8381 41.4613 21.7189 42.2435 22.6693 42.9347L22.7206 42.9697C23.2153 43.3477 23.6493 43.756 24.0413 44.2017L24.0506 44.211C24.4193 44.645 24.8603 45.002 25.3573 45.2704L25.3806 45.282V45.226H25.4926C25.4041 45.0279 25.2577 44.8611 25.0726 44.7477L25.068 44.7453C24.8968 44.651 24.7323 44.5449 24.5756 44.428L24.5873 44.435C24.2498 44.0975 23.9013 43.721 23.542 43.3057C23.1826 42.8904 22.8536 42.4952 22.555 42.1203C21.7648 41.0284 21.0111 39.8874 20.294 38.6974C19.5769 37.5074 18.8994 36.2979 18.2616 35.069C17.9599 34.467 17.6682 33.8464 17.3866 33.207C17.1051 32.5677 16.8321 31.947 16.5676 31.345C16.4479 31.1004 16.3721 30.8366 16.3436 30.5657V30.554C16.3373 30.4259 16.2979 30.3015 16.2292 30.1931C16.1605 30.0848 16.0649 29.9961 15.9516 29.9357L15.947 29.9334C15.6798 30.3926 15.3604 30.8193 14.995 31.205L14.9973 31.2027C14.6226 31.5976 14.3208 32.0558 14.106 32.556L14.0943 32.5864C13.745 33.4481 13.5181 34.3544 13.42 35.279L13.4153 35.3234C13.3033 36.3205 13.1905 37.3456 13.077 38.3987L12.965 38.4547L12.909 38.5107C12.6169 38.4521 12.3416 38.3289 12.1034 38.15C11.8652 37.9711 11.67 37.7412 11.5323 37.477L11.5276 37.4654C11.2445 36.9194 10.991 36.3827 10.767 35.8554C10.1557 34.2561 9.82194 32.5643 9.77998 30.8527V30.8317C9.65879 29.0028 9.88523 27.1676 10.4473 25.423L10.4193 25.5257C10.5313 25.1119 10.7755 24.415 11.152 23.435C11.5284 22.455 11.6039 21.7776 11.3783 21.4027C11.267 21.0316 11.0526 20.6999 10.76 20.446L10.7576 20.4437C10.4788 20.2021 10.2175 19.9409 9.97598 19.662L9.96898 19.6527C9.70609 19.2731 9.45253 18.8687 9.20831 18.4394C8.96409 18.01 8.74787 17.5869 8.55964 17.17C8.12515 16.1419 7.75576 15.0875 7.45364 14.013L7.40231 13.8054C7.07031 12.6047 6.64433 11.4321 6.12831 10.2984L6.18898 10.4477C5.94757 9.89364 5.64216 9.36974 5.27898 8.88669L5.29298 8.90535C4.91342 8.39824 4.57431 7.91835 4.27564 7.46569C3.89609 6.97724 3.51964 6.50669 3.14631 6.05402C2.75728 5.58283 2.42375 5.06845 2.15231 4.52102L2.13131 4.47435C2.01192 4.2306 1.91884 3.97482 1.85364 3.71135L1.84898 3.68569C1.80889 3.55313 1.79835 3.4134 1.81811 3.27633C1.83786 3.13927 1.88742 3.0082 1.96331 2.89235L1.96098 2.89702C1.98592 2.77085 2.04481 2.65387 2.13131 2.55869C2.22578 2.47425 2.34089 2.4163 2.46498 2.39069H2.46964C2.65374 2.27129 2.86537 2.20109 3.08433 2.18679C3.30329 2.1725 3.52225 2.21458 3.72031 2.30902L3.71331 2.30669C4.22431 2.45135 4.63731 2.59602 5.04098 2.76169L4.95698 2.73135C5.67098 3.03313 6.32975 3.3248 6.93331 3.60635C7.62864 3.93769 8.22131 4.28769 8.78131 4.67735L8.73931 4.64935C9.04109 4.83758 9.34209 5.04447 9.64231 5.27002C9.94253 5.49558 10.2622 5.72191 10.6013 5.94902H11.3923C11.9943 5.94902 12.6336 5.9778 13.3103 6.03535C13.994 6.08902 14.6263 6.21735 15.2283 6.41802L15.1723 6.40169C16.2946 6.73535 17.2583 7.12969 18.173 7.60335L18.0773 7.55902C18.9998 8.0288 19.8748 8.52735 20.7023 9.05469C22.0766 9.91102 23.2643 10.7884 24.382 11.7474L24.3423 11.7147C25.509 12.7134 26.5683 13.7377 27.5623 14.8204L27.5856 14.8484C28.5563 15.9077 29.4826 17.058 30.3296 18.2644L30.402 18.374C31.1813 19.4754 31.9676 20.7494 32.6746 22.07L32.7726 22.2684C32.981 22.6732 33.1634 23.091 33.3186 23.519L33.3443 23.596C33.4952 24.0285 33.664 24.4718 33.8506 24.926C34.2644 25.8671 34.7078 26.8168 35.1806 27.775C35.6535 28.7332 36.0969 29.665 36.5106 30.5704L37.752 33.2794C38.1883 34.2267 38.676 35.0434 39.243 35.797L39.2173 35.762C39.691 36.2684 40.3233 36.623 41.0326 36.7467L41.0513 36.749C41.91 36.9637 42.6333 37.2064 43.3333 37.4934L43.2236 37.4537C43.5573 37.6054 43.9866 37.7664 44.4276 37.9087L44.521 37.9344C45.0156 38.086 45.445 38.2867 45.8393 38.5387L45.8183 38.527C46.5813 38.954 47.2276 39.374 47.8436 39.8314L47.7946 39.7964C48.434 40.2661 49.0733 40.7095 49.7126 41.1264C50.0144 41.3519 50.5208 41.6809 51.2316 42.1134C51.9425 42.5458 52.319 42.9502 52.361 43.3267C50.9314 43.2771 49.5001 43.345 48.0816 43.5297L48.2123 43.5157C47.0277 43.6695 45.8678 43.9754 44.7613 44.4257L44.8546 44.393C44.5614 44.5174 44.2586 44.618 43.9493 44.694L43.905 44.7034C43.7443 44.7264 43.5959 44.8026 43.4834 44.9197C43.371 45.0368 43.3009 45.1882 43.2843 45.3497C43.4266 45.527 43.541 45.7347 43.618 45.9587L43.6226 45.9727C43.702 46.2107 43.7976 46.416 43.9143 46.6073L43.9073 46.5934C44.185 47.0857 44.4836 47.5104 44.8196 47.9024L44.8103 47.8907C45.1393 48.2967 45.5103 48.649 45.921 48.95L45.9373 48.9617C46.3169 49.2635 46.712 49.5738 47.1227 49.8927C47.4983 50.1867 47.923 50.476 48.364 50.7374L48.42 50.7677C49.0826 51.1737 49.8526 51.561 50.6553 51.8854L50.7626 51.9227C51.6353 52.2727 52.3843 52.6787 53.0796 53.1617L53.0423 53.136C53.495 53.3989 53.9461 53.6906 54.3956 54.011C54.8452 54.3315 55.2776 54.6418 55.693 54.942C55.8633 55.11 56.0126 55.2967 56.1386 55.4997L56.1456 55.5114C56.3608 55.7596 56.6598 55.9199 56.9856 55.9617H56.9926V55.8497C56.7863 55.6936 56.6358 55.4751 56.5633 55.2267L56.561 55.2174C56.5076 54.9927 56.4194 54.7778 56.2996 54.5803L56.3043 54.5897L56.3136 54.599ZM12.9696 9.78735C12.6679 9.78735 12.3855 9.79669 12.1226 9.81535C11.8662 9.83185 11.6129 9.88125 11.369 9.96235L11.39 9.95535V10.0114H11.502C11.6529 10.2369 11.8426 10.4905 12.0713 10.772C12.3 11.0536 12.5069 11.3266 12.692 11.591L13.595 13.453L13.707 13.397C13.9697 13.2079 14.1736 12.9482 14.295 12.648L14.2996 12.6364C14.421 12.312 14.491 11.934 14.491 11.542L14.4886 11.416V11.423C14.3828 11.3201 14.2974 11.1982 14.2366 11.0637L14.2343 11.0567L14.0453 10.632C13.9243 10.4387 13.7512 10.2835 13.546 10.184L13.539 10.1817C13.3293 10.0816 13.1371 9.94843 12.9696 9.78735Z" fill="white"/>
</symbol>
<symbol id="icon-Vector-4" viewBox="0 0 64 32">
<path  d="M1.357 30.871h4.884c0.106 0.001 0.208-0.036 0.288-0.105s0.133-0.164 0.148-0.269l1.089-5.662h3.796c1.589 0.040 3.174-0.17 4.698-0.622 1.235-0.408 2.362-1.089 3.298-1.991 0.841-0.756 1.546-1.65 2.084-2.644 0.533-0.973 0.911-2.022 1.12-3.111 0.331-1.141 0.387-2.345 0.166-3.512s-0.715-2.266-1.441-3.207c-0.841-0.855-1.859-1.515-2.982-1.934s-2.325-0.587-3.52-0.493h-9.333c-0.112 0.005-0.219 0.048-0.304 0.121s-0.142 0.173-0.163 0.283l-4.293 22.587c-0.048 0.131-0.048 0.274 0 0.404 0.059 0.062 0.133 0.108 0.214 0.135s0.168 0.034 0.253 0.020zM10.223 11.706h3.111c0.592-0.080 1.194-0.041 1.771 0.114s1.117 0.423 1.589 0.788c0.529 0.56 0.622 1.618 0.342 3.111-0.156 1.336-0.785 2.572-1.773 3.485-1.232 0.78-2.684 1.14-4.138 1.027h-2.489l1.587-8.524zM40.712 8.751c-1.684-1.238-3.77-1.804-5.849-1.587h-3.702l1.027-5.476c0.030-0.063 0.046-0.132 0.046-0.202s-0.016-0.139-0.046-0.202c-0.111-0.040-0.232-0.040-0.342 0h-4.884c-0.105-0.001-0.208 0.036-0.288 0.105s-0.133 0.164-0.148 0.268l-4.293 22.618c-0.030 0.058-0.046 0.122-0.046 0.187s0.016 0.129 0.046 0.187c0.037 0.057 0.087 0.105 0.147 0.137s0.127 0.050 0.195 0.049h4.791c0.11 0 0.217-0.041 0.298-0.116s0.13-0.178 0.138-0.288l2.396-12.662h3.453c1.4 0 1.898 0.311 2.053 0.498 0.127 0.306 0.192 0.633 0.192 0.964s-0.065 0.659-0.192 0.964l-1.898 10.080c-0.030 0.058-0.046 0.122-0.046 0.187s0.016 0.129 0.046 0.187c0.039 0.056 0.090 0.101 0.149 0.134s0.126 0.051 0.193 0.053h4.853c0.112-0.005 0.219-0.048 0.304-0.121s0.142-0.173 0.163-0.283l1.991-10.578c0.321-0.843 0.421-1.755 0.291-2.648s-0.488-1.738-1.037-2.454zM54.774 7.164h-9.738c-0.057-0.004-0.115 0.003-0.169 0.021s-0.105 0.047-0.148 0.084-0.079 0.083-0.104 0.135c-0.026 0.051-0.041 0.107-0.045 0.165l-4.542 22.742c-0.028 0.064-0.043 0.133-0.043 0.202s0.015 0.139 0.043 0.202c0.042 0.050 0.094 0.090 0.153 0.117s0.124 0.040 0.189 0.039h5.071c0.111 0.009 0.221-0.025 0.307-0.094s0.144-0.169 0.159-0.279l1.151-5.662h3.951c1.64 0.036 3.276-0.174 4.853-0.622 1.358-0.378 2.613-1.059 3.671-1.991 0.869-0.754 1.605-1.648 2.178-2.644 0.543-0.971 0.931-2.021 1.151-3.111 0.339-1.143 0.397-2.35 0.17-3.52s-0.734-2.268-1.477-3.2c-0.88-0.891-1.94-1.583-3.111-2.028s-2.422-0.634-3.672-0.554zM56.703 15.782c-0.186 1.347-0.848 2.583-1.867 3.484-1.277 0.784-2.769 1.143-4.262 1.027h-2.489l1.68-8.587h3.111c1.244-0.152 2.499 0.17 3.515 0.902 0.498 0.56 0.498 1.618 0.311 3.173z"></path>
</symbol>
<symbol id="icon-Vector-3" viewBox="0 0 33 32">
<path  d="M2.109 7.507c-2.94 4.223-2.575 9.715-0.328 14.199 0.053 0.108 0.107 0.213 0.163 0.317 0.032 0.070 0.068 0.139 0.106 0.207 0.019 0.039 0.041 0.076 0.065 0.113 0.037 0.072 0.074 0.142 0.112 0.21l0.217 0.368c0.041 0.068 0.079 0.134 0.124 0.202 0.077 0.13 0.166 0.259 0.246 0.389 0.034 0.055 0.071 0.109 0.109 0.162 0.134 0.211 0.277 0.417 0.429 0.615 0.106 0.148 0.217 0.293 0.332 0.436l0.119 0.159 0.304 0.372c0.039 0.041 0.076 0.093 0.116 0.137 0.136 0.162 0.277 0.324 0.423 0.484l0.007 0.008c0.175 0.222 0.372 0.426 0.588 0.608 0.11 0.115 0.223 0.228 0.339 0.339l0.14 0.134c0.152 0.146 0.309 0.288 0.47 0.427 0 0 0.004 0.001 0.007 0.004l0.079 0.069c0.141 0.124 0.284 0.244 0.429 0.36l0.173 0.145 0.549 0.422c0.129 0.097 0.265 0.192 0.397 0.286 0.048 0.035 0.097 0.069 0.147 0.101l0.041 0.032 0.387 0.256 0.166 0.111c0.204 0.129 0.407 0.254 0.608 0.376 0.058 0.029 0.115 0.060 0.17 0.094 0.151 0.088 0.303 0.172 0.455 0.253 0.083 0.046 0.168 0.089 0.254 0.13 0.104 0.057 0.212 0.115 0.324 0.173 0.027 0.008 0.053 0.019 0.077 0.032l0.133 0.065c0.166 0.083 0.339 0.164 0.519 0.242 0.034 0.013 0.069 0.029 0.105 0.047 0.198 0.087 0.4 0.171 0.606 0.252 0.047 0.014 0.097 0.037 0.145 0.055 0.188 0.072 0.377 0.142 0.568 0.21l0.069 0.025c0.212 0.072 0.424 0.141 0.636 0.207l0.153 0.046c0.221 0.066 0.434 0.145 0.655 0.189 14.205 2.588 18.332-8.541 18.332-8.541-3.468 4.516-9.621 5.706-15.45 4.382-0.216-0.050-0.431-0.119-0.65-0.183-0.263-0.078-0.524-0.162-0.784-0.252l-0.086-0.033c-0.186-0.065-0.371-0.133-0.553-0.205l-0.152-0.055c-0.203-0.083-0.402-0.168-0.599-0.254-0.043-0.014-0.079-0.033-0.122-0.050l-0.501-0.235-0.147-0.072c-0.13-0.061-0.26-0.131-0.387-0.198-0.087-0.042-0.174-0.086-0.259-0.133-0.158-0.083-0.314-0.173-0.47-0.259-0.048-0.032-0.1-0.063-0.155-0.091-0.204-0.121-0.407-0.246-0.607-0.373-0.056-0.034-0.11-0.070-0.163-0.108-0.147-0.091-0.291-0.186-0.431-0.286l-0.142-0.101c-0.138-0.095-0.274-0.193-0.408-0.293-0.059-0.046-0.12-0.092-0.183-0.138-0.122-0.097-0.245-0.187-0.366-0.288l-0.163-0.131c-0.157-0.126-0.311-0.255-0.463-0.387l-0.051-0.043-0.48-0.437-0.138-0.13c-0.113-0.115-0.229-0.229-0.346-0.34l-0.136-0.138c-0.146-0.145-0.289-0.294-0.427-0.447l-0.021-0.022c-0.147-0.16-0.291-0.324-0.433-0.491-0.037-0.042-0.074-0.087-0.111-0.134l-0.314-0.383c-0.159-0.205-0.316-0.412-0.47-0.621-3.233-4.412-4.403-10.505-1.816-15.5zM11.228 3.95c-2.129 3.057-2.011 7.147-0.351 10.381 0.274 0.544 0.587 1.068 0.937 1.567 0.318 0.456 0.669 0.997 1.097 1.366 0.149 0.167 0.308 0.333 0.476 0.498l0.124 0.124c0.159 0.151 0.32 0.301 0.484 0.449l0.022 0.018c0.187 0.163 0.377 0.32 0.572 0.473 0.047 0.032 0.087 0.069 0.133 0.101 0.194 0.148 0.391 0.294 0.592 0.437l0.021 0.012c0.086 0.061 0.177 0.121 0.274 0.18 0.039 0.025 0.083 0.058 0.124 0.083 0.146 0.092 0.292 0.183 0.44 0.272l0.066 0.032c0.124 0.076 0.26 0.149 0.39 0.217 0.046 0.028 0.090 0.048 0.138 0.075 0.092 0.046 0.183 0.093 0.272 0.141l0.044 0.019c0.188 0.092 0.376 0.18 0.564 0.263 0.046 0.018 0.088 0.036 0.127 0.054 0.154 0.066 0.309 0.13 0.465 0.189 0.069 0.024 0.134 0.051 0.199 0.072 0.141 0.053 0.29 0.101 0.429 0.149l0.194 0.062c0.203 0.062 0.408 0.144 0.621 0.18 10.965 1.815 13.504-6.63 13.504-6.63-2.286 3.291-6.709 4.857-11.423 3.634-0.209-0.054-0.416-0.114-0.621-0.18-0.066-0.019-0.124-0.040-0.188-0.059-0.144-0.050-0.292-0.097-0.431-0.151l-0.199-0.075c-0.156-0.062-0.314-0.12-0.465-0.187-0.047-0.021-0.090-0.035-0.126-0.055-0.195-0.086-0.387-0.174-0.578-0.265l-0.285-0.148-0.165-0.083c-0.124-0.066-0.246-0.135-0.366-0.207l-0.086-0.048c-0.147-0.091-0.3-0.18-0.44-0.274-0.046-0.028-0.091-0.056-0.134-0.086l-0.288-0.188c-0.199-0.138-0.394-0.288-0.592-0.433-0.044-0.039-0.088-0.075-0.13-0.109-2.073-1.629-3.707-3.858-4.483-6.378-0.816-2.623-0.636-5.563 0.774-7.951zM18.896 1.289c-1.257 1.845-1.377 4.134-0.512 6.167 0.92 2.161 2.799 3.858 4.989 4.66 0.088 0.033 0.179 0.065 0.271 0.097l0.122 0.037c0.127 0.041 0.256 0.087 0.387 0.116 6.058 1.168 7.698-3.111 8.139-3.739-1.442 2.071-3.861 2.568-6.828 1.846-0.242-0.061-0.48-0.135-0.713-0.221-0.291-0.101-0.576-0.218-0.855-0.351-0.527-0.255-1.028-0.56-1.496-0.913-2.658-2.015-4.304-5.857-2.57-8.988z"></path>
</symbol>
<symbol id="icon-Vector-7" viewBox="0 0 32 32">
<path  d="M32.179 31.199l-0.677-0.645c-0.323-0.428-0.684-0.825-1.079-1.188l-0.007-0.005c-0.398-0.362-0.812-0.706-1.241-1.032-0.344-0.236-0.817-0.521-1.419-0.855-0.488-0.217-0.878-0.609-1.091-1.099l-0.005-0.013-0.064-0.032c0.283-0.028 0.541-0.080 0.789-0.153l-0.031 0.008 0.76-0.209c0.315-0.099 0.679-0.163 1.056-0.177h0.008c0.397-0.016 0.772-0.080 1.129-0.185l-0.033 0.008c0.172-0.043 0.35-0.091 0.532-0.145s0.338-0.103 0.468-0.145v-0.225c-0.129-0.193-0.285-0.413-0.468-0.661-0.17-0.232-0.368-0.442-0.591-0.624l-0.007-0.005c-0.559-0.494-1.138-0.972-1.737-1.435-0.562-0.436-1.145-0.844-1.748-1.221l-0.091-0.053c-0.348-0.227-0.716-0.421-1.1-0.58l-0.045-0.016c-0.398-0.162-0.791-0.339-1.177-0.532-0.139-0.068-0.285-0.121-0.436-0.159l-0.015-0.003c-0.15-0.030-0.287-0.109-0.387-0.225l-0.001-0.001c-0.189-0.251-0.348-0.524-0.473-0.812l-0.011-0.027c-0.129-0.301-0.268-0.591-0.419-0.868-0.323-0.624-0.635-1.258-0.936-1.903s-0.591-1.29-0.868-1.936c-0.193-0.43-0.37-0.86-0.532-1.289-0.164-0.438-0.369-0.858-0.615-1.256l0.017 0.031c-0.531-0.911-1.124-1.785-1.775-2.615l0.037 0.051c-0.595-0.754-1.245-1.462-1.945-2.12l-0.011-0.009c-0.688-0.646-1.415-1.25-2.176-1.808l-0.065-0.047c-0.796-0.579-1.668-1.148-2.613-1.709-0.402-0.235-0.835-0.411-1.287-0.524l-0.035-0.008-1.484-0.371-0.839-0.064c-0.279-0.021-0.559-0.032-0.839-0.032-0.189-0.099-0.363-0.224-0.516-0.372-0.148-0.141-0.306-0.272-0.471-0.393l-0.013-0.009c-0.866-0.5-1.778-0.915-2.724-1.24l-0.113-0.035c-0.235-0.135-0.498-0.214-0.768-0.234s-0.541 0.022-0.793 0.122l0.012-0.004c-0.248 0.097-0.472 0.248-0.655 0.442s-0.322 0.425-0.405 0.678l-0.004 0.013c-0.141 0.34-0.187 0.712-0.133 1.076s0.207 0.706 0.442 0.99l-0.003-0.004c0.484 0.644 0.854 1.151 1.112 1.52 0.193 0.259 0.392 0.528 0.597 0.807 0.188 0.251 0.355 0.537 0.489 0.84l0.011 0.028c0.075 0.159 0.14 0.348 0.188 0.543l0.004 0.021c0.043 0.183 0.096 0.382 0.161 0.597 0.193 0.494 0.376 1.001 0.548 1.52 0.188 0.567 0.396 1.047 0.637 1.504l-0.025-0.053c0.129 0.236 0.258 0.468 0.388 0.693s0.269 0.446 0.419 0.661c0.085 0.128 0.194 0.238 0.321 0.323l0.004 0.003c0.067 0.048 0.122 0.11 0.161 0.183s0.061 0.153 0.065 0.235c-0.157 0.234-0.256 0.503-0.289 0.783l-0.001 0.008c-0.042 0.314-0.11 0.624-0.204 0.927l0.011-0.040c-0.314 0.96-0.472 1.965-0.468 2.975 0 0.344 0.017 0.683 0.053 1.017l-0.004-0.041c0.080 1.277 0.465 2.451 1.083 3.467l-0.019-0.033c0.263 0.393 0.544 0.736 0.855 1.049 0.18 0.203 0.424 0.34 0.691 0.389s0.543 0.007 0.784-0.118l-0.007 0.003c0.231-0.081 0.433-0.23 0.579-0.426s0.231-0.432 0.244-0.677v-0.003c0.064-0.632 0.16-1.197 0.292-1.749l-0.017 0.089c0.034-0.090 0.051-0.185 0.051-0.281l-0.003-0.060v0.003c-0.011-0.097 0.048-0.188 0.177-0.275v0.064c0.129 0.301 0.263 0.602 0.403 0.903s0.284 0.601 0.435 0.903c0.393 0.599 0.811 1.121 1.269 1.603l-0.004-0.004c0.456 0.493 0.96 0.94 1.503 1.335l0.029 0.020c0.283 0.216 0.531 0.449 0.755 0.704l0.005 0.005c0.211 0.248 0.463 0.452 0.747 0.605l0.013 0.007v-0.032h0.064c-0.051-0.113-0.134-0.209-0.24-0.273l-0.003-0.001c-0.098-0.054-0.192-0.114-0.281-0.181l0.007 0.004c-0.193-0.193-0.392-0.408-0.597-0.645s-0.393-0.463-0.564-0.677c-0.452-0.624-0.882-1.276-1.292-1.956s-0.797-1.371-1.161-2.073c-0.172-0.344-0.339-0.699-0.5-1.064s-0.317-0.72-0.468-1.064c-0.068-0.14-0.112-0.291-0.128-0.445v-0.007c-0.004-0.073-0.026-0.144-0.065-0.206s-0.094-0.113-0.159-0.147l-0.003-0.001c-0.153 0.262-0.335 0.506-0.544 0.727l0.001-0.001c-0.214 0.226-0.387 0.488-0.509 0.773l-0.007 0.017c-0.2 0.492-0.329 1.010-0.385 1.539l-0.003 0.025c-0.064 0.57-0.128 1.156-0.193 1.757l-0.064 0.032-0.032 0.032c-0.167-0.034-0.324-0.104-0.46-0.206s-0.248-0.234-0.326-0.385l-0.003-0.007c-0.162-0.312-0.307-0.619-0.435-0.92-0.349-0.914-0.54-1.881-0.564-2.859v-0.012c-0.069-1.045 0.060-2.094 0.381-3.091l-0.016 0.059c0.064-0.236 0.204-0.635 0.419-1.195s0.258-0.947 0.129-1.161c-0.064-0.212-0.186-0.402-0.353-0.547l-0.001-0.001c-0.159-0.138-0.309-0.287-0.447-0.447l-0.004-0.005c-0.15-0.217-0.295-0.448-0.435-0.693s-0.263-0.487-0.371-0.725c-0.248-0.588-0.459-1.19-0.632-1.804l-0.029-0.119c-0.19-0.686-0.433-1.356-0.728-2.004l0.035 0.085c-0.138-0.317-0.312-0.616-0.52-0.892l0.008 0.011c-0.217-0.29-0.411-0.564-0.581-0.823-0.217-0.279-0.432-0.548-0.645-0.807-0.222-0.269-0.413-0.563-0.568-0.876l-0.012-0.027c-0.068-0.139-0.121-0.285-0.159-0.436l-0.003-0.015c-0.023-0.076-0.029-0.156-0.018-0.234s0.040-0.153 0.083-0.219l-0.001 0.003c0.014-0.072 0.048-0.139 0.097-0.193 0.054-0.048 0.12-0.081 0.191-0.096h0.003c0.105-0.068 0.226-0.108 0.351-0.117s0.25 0.016 0.363 0.070l-0.004-0.001c0.292 0.083 0.528 0.165 0.759 0.26l-0.048-0.017c0.408 0.172 0.784 0.339 1.129 0.5 0.397 0.189 0.736 0.389 1.056 0.612l-0.024-0.016c0.172 0.108 0.344 0.226 0.516 0.355s0.354 0.258 0.548 0.388h0.452c0.344 0 0.709 0.016 1.096 0.049 0.391 0.031 0.752 0.104 1.096 0.219l-0.032-0.009c0.641 0.191 1.192 0.416 1.715 0.687l-0.055-0.025c0.527 0.268 1.027 0.553 1.5 0.855 0.785 0.489 1.464 0.991 2.103 1.539l-0.023-0.019c0.667 0.571 1.272 1.156 1.84 1.775l0.013 0.016c0.555 0.605 1.084 1.263 1.568 1.952l0.041 0.063c0.445 0.629 0.895 1.357 1.299 2.112l0.056 0.113c0.119 0.231 0.223 0.47 0.312 0.715l0.015 0.044c0.086 0.247 0.183 0.5 0.289 0.76 0.236 0.538 0.49 1.080 0.76 1.628s0.524 1.080 0.76 1.597l0.709 1.548c0.249 0.541 0.528 1.008 0.852 1.439l-0.015-0.020c0.271 0.289 0.632 0.492 1.037 0.563l0.011 0.001c0.491 0.123 0.904 0.261 1.304 0.425l-0.063-0.023c0.191 0.087 0.436 0.179 0.688 0.26l0.053 0.015c0.283 0.087 0.528 0.201 0.753 0.345l-0.012-0.007c0.436 0.244 0.805 0.484 1.157 0.745l-0.028-0.020c0.365 0.268 0.731 0.522 1.096 0.76 0.172 0.129 0.462 0.317 0.868 0.564s0.621 0.478 0.645 0.693c-0.817-0.028-1.635 0.010-2.445 0.116l0.075-0.008c-0.677 0.088-1.34 0.263-1.972 0.52l0.053-0.019c-0.168 0.071-0.341 0.129-0.517 0.172l-0.025 0.005c-0.092 0.013-0.177 0.057-0.241 0.124s-0.104 0.153-0.114 0.246c0.081 0.101 0.147 0.22 0.191 0.348l0.003 0.008c0.045 0.136 0.1 0.253 0.167 0.363l-0.004-0.008c0.159 0.281 0.329 0.524 0.521 0.748l-0.005-0.007c0.188 0.232 0.4 0.433 0.635 0.605l0.009 0.007c0.217 0.172 0.443 0.35 0.677 0.532 0.215 0.168 0.457 0.333 0.709 0.483l0.032 0.017c0.379 0.232 0.819 0.453 1.277 0.639l0.061 0.021c0.499 0.2 0.927 0.432 1.324 0.708l-0.021-0.015c0.259 0.15 0.516 0.317 0.773 0.5s0.504 0.36 0.741 0.532c0.097 0.096 0.183 0.203 0.255 0.319l0.004 0.007c0.123 0.142 0.294 0.233 0.48 0.257h0.004v-0.064c-0.118-0.089-0.204-0.214-0.245-0.356l-0.001-0.005c-0.031-0.128-0.081-0.251-0.149-0.364l0.003 0.005 0.005 0.005zM7.411 5.593c-0.172 0-0.334 0.005-0.484 0.016-0.146 0.009-0.291 0.038-0.431 0.084l0.012-0.004v0.032h0.064c0.086 0.129 0.195 0.274 0.325 0.435s0.249 0.317 0.355 0.468l0.516 1.064 0.064-0.032c0.15-0.108 0.267-0.256 0.336-0.428l0.003-0.007c0.069-0.185 0.109-0.401 0.109-0.625l-0.001-0.072v0.004c-0.060-0.059-0.109-0.128-0.144-0.205l-0.001-0.004-0.108-0.243c-0.069-0.11-0.168-0.199-0.285-0.256l-0.004-0.001c-0.12-0.057-0.23-0.133-0.325-0.225z"></path>
</symbol>
<symbol id="icon-Vector-6" viewBox="0 0 29 32">
<path  d="M14.285 0l-13.86 8v16l13.86 8 13.86-8v-16l-13.86-8zM22.285 22.12c0 0.94-0.861 1.72-2.039 1.72-0.841 0-1.801-0.34-2.401-1.080l-8-9.521v8.88c0 0.961-0.76 1.72-1.699 1.72h-0.101c-0.961 0-1.72-0.8-1.72-1.72v-12.239c0-0.94 0.84-1.72 2-1.72 0.861 0 1.84 0.34 2.44 1.080l7.96 9.521v-8.881c0-0.961 0.8-1.72 1.72-1.72h0.1c0.96 0 1.72 0.8 1.72 1.72v12.24h0.020z"></path>
</symbol>
<symbol id="icon-Vector-5" viewBox="0 0 26 32">
<path  d="M19.398 20.341c-0.216-2.851-1.135-4.698-1.583-5.745s-1.136-2.027-1.136-2.026c-0.001 0.005-0.62 3.335-1.731 5.746-0.186 0.402-0.432 0.905-0.681 1.309-0.767 1.355-1.88 2.651-2.544 3.964-0.658 1.302-0.78 2.591-0.719 4.057 0.062 1.474 0.402 2.919 0.729 4.352 1.232-0.266 2.305-0.721 3.233-1.302 2.442-1.531 3.918-3.979 4.337-6.617 0 0 0.020-0.108 0.029-0.238 0.189-2.039 0.127-2.682 0.064-3.5zM19.398 20.341c-0.216-2.851-1.135-4.698-1.583-5.745s-1.136-2.027-1.136-2.026l-0.164-0.244c-3.601-5.055-10.508-7.579-16.343-5.24-0.281 3.543 1.362 9.64 7.355 11.341 2.423 0.745 4.363 0.552 6.741 1.198 0 0 2.417 0.843 3.823 2.106 0.633 0.568 1.266 1.316 1.234 2.205 0.2-2.116 0.136-2.764 0.073-3.595zM16.782 9.604c-0.851-2.491-0.49-4.161 1.067-6.484 0.743-1.109 2.026-2.394 3.15-3.12 4.536 2.842 6.214 8.137 4.546 13.055-1.214 3.578-2.354 5.078-5.234 8.759 0.336-3.942-1.052-6.676-2.414-9.713-0.347-0.772-0.826-1.652-1.115-2.497zM19.326 23.936c0.032-0.889-0.602-1.637-1.234-2.205-1.406-1.263-3.823-2.106-3.823-2.106 0.249-0.404 0.495-0.907 0.681-1.309 1.112-2.41 1.729-5.741 1.731-5.746 0-0.002 0.688 0.979 1.136 2.026s1.367 2.895 1.583 5.745c0.063 0.831 0.127 1.479-0.073 3.595z"></path>
</symbol>
<symbol id="icon-Vector-2" viewBox="0 0 32 32">
<path fill-rule="evenodd" clip-rule="evenodd" d="M56 0H0V56H56V0ZM29.8667 29.8667C29.8667 27.8864 30.6533 25.9872 32.0536 24.5869C33.4539 23.1867 35.3531 22.4 37.3333 22.4H41.6901C45.4683 22.4 48.5333 25.4613 48.5333 29.2432V29.8667H44.8V29.2432C44.8 28.8348 44.7196 28.4304 44.5633 28.0531C44.407 27.6758 44.1779 27.333 43.8891 27.0442C43.6004 26.7554 43.2575 26.5263 42.8802 26.3701C42.5029 26.2138 42.0985 26.1333 41.6901 26.1333H37.3333C36.3432 26.1333 35.3936 26.5267 34.6935 27.2268C33.9933 27.9269 33.6 28.8765 33.6 29.8667C33.6 30.8568 33.9933 31.8064 34.6935 32.5065C35.3936 33.2067 36.3432 33.6 37.3333 33.6H41.0667C43.047 33.6 44.9461 34.3867 46.3464 35.7869C47.7467 37.1872 48.5333 39.0864 48.5333 41.0667C48.5333 43.047 47.7467 44.9461 46.3464 46.3464C44.9461 47.7467 43.047 48.5333 41.0667 48.5333H37.3333C35.3531 48.5333 33.4539 47.7467 32.0536 46.3464C30.6533 44.9461 29.8667 43.047 29.8667 41.0667H33.6C33.6 42.0568 33.9933 43.0064 34.6935 43.7065C35.3936 44.4067 36.3432 44.8 37.3333 44.8H41.0667C42.0568 44.8 43.0064 44.4067 43.7065 43.7065C44.4067 43.0064 44.8 42.0568 44.8 41.0667C44.8 40.0765 44.4067 39.1269 43.7065 38.4268C43.0064 37.7267 42.0568 37.3333 41.0667 37.3333H37.3333C35.3531 37.3333 33.4539 36.5467 32.0536 35.1464C30.6533 33.7461 29.8667 31.847 29.8667 29.8667ZM22.4 22.4V41.0667C22.4 42.0568 22.0067 43.0064 21.3065 43.7065C20.6064 44.4067 19.6568 44.8 18.6667 44.8C17.6765 44.8 16.7269 44.4067 16.0268 43.7065C15.3267 43.0064 14.9333 42.0568 14.9333 41.0667H11.2C11.2 43.047 11.9867 44.9461 13.3869 46.3464C14.7872 47.7467 16.6864 48.5333 18.6667 48.5333C20.6469 48.5333 22.5461 47.7467 23.9464 46.3464C25.3467 44.9461 26.1333 43.047 26.1333 41.0667V22.4H22.4Z"/></symbol><symbol id="download" width="56" height="56" viewBox="0 0 56 56" fill="none"><path fill-rule="evenodd" clip-rule="evenodd" d="M56 0H0V56H56V0ZM29.8667 29.8667C29.8667 27.8864 30.6533 25.9872 32.0536 24.5869C33.4539 23.1867 35.3531 22.4 37.3333 22.4H41.6901C45.4683 22.4 48.5333 25.4613 48.5333 29.2432V29.8667H44.8V29.2432C44.8 28.8348 44.7196 28.4304 44.5633 28.0531C44.407 27.6758 44.1779 27.333 43.8891 27.0442C43.6004 26.7554 43.2575 26.5263 42.8802 26.3701C42.5029 26.2138 42.0985 26.1333 41.6901 26.1333H37.3333C36.3432 26.1333 35.3936 26.5267 34.6935 27.2268C33.9933 27.9269 33.6 28.8765 33.6 29.8667C33.6 30.8568 33.9933 31.8064 34.6935 32.5065C35.3936 33.2067 36.3432 33.6 37.3333 33.6H41.0667C43.047 33.6 44.9461 34.3867 46.3464 35.7869C47.7467 37.1872 48.5333 39.0864 48.5333 41.0667C48.5333 43.047 47.7467 44.9461 46.3464 46.3464C44.9461 47.7467 43.047 48.5333 41.0667 48.5333H37.3333C35.3531 48.5333 33.4539 47.7467 32.0536 46.3464C30.6533 44.9461 29.8667 43.047 29.8667 41.0667H33.6C33.6 42.0568 33.9933 43.0064 34.6935 43.7065C35.3936 44.4067 36.3432 44.8 37.3333 44.8H41.0667C42.0568 44.8 43.0064 44.4067 43.7065 43.7065C44.4067 43.0064 44.8 42.0568 44.8 41.0667C44.8 40.0765 44.4067 39.1269 43.7065 38.4268C43.0064 37.7267 42.0568 37.3333 41.0667 37.3333H37.3333C35.3531 37.3333 33.4539 36.5467 32.0536 35.1464C30.6533 33.7461 29.8667 31.847 29.8667 29.8667ZM22.4 22.4V41.0667C22.4 42.0568 22.0067 43.0064 21.3065 43.7065C20.6064 44.4067 19.6568 44.8 18.6667 44.8C17.6765 44.8 16.7269 44.4067 16.0268 43.7065C15.3267 43.0064 14.9333 42.0568 14.9333 41.0667H11.2C11.2 43.047 11.9867 44.9461 13.3869 46.3464C14.7872 47.7467 16.6864 48.5333 18.6667 48.5333C20.6469 48.5333 22.5461 47.7467 23.9464 46.3464C25.3467 44.9461 26.1333 43.047 26.1333 41.0667V22.4H22.4Z"/>
</symbol>
<symbol id="icon-Vector-1" viewBox="0 0 28 32">
<path  d="M0 0.444l2.455 27.742 11.545 3.369 11.617-3.368 2.383-27.743h-28zM20.689 23.345l-6.689 1.873-6.684-1.873-0.462-4.926h3.279l0.233 2.374 3.632 0.994 3.64-0.996 0.381-4.744h-11.309l-0.291-3.12h11.884l0.271-3.12h-12.471l-0.274-3.12h16.343l-1.484 16.66z"></path>
</symbol>
<symbol id="icon-Vector" viewBox="0 0 28 32">
<path  d="M0 0.444l2.455 27.726 11.545 3.385 11.615-3.383 2.385-27.728h-28zM21.854 9.852h-12.404l0.268 3.136h11.973l-0.974 10.212-6.605 2.148-6.659-2.263-0.448-4.561h3.148l0.249 2.195 3.733 1.268 3.649-1.187 0.462-4.674h-11.377l-0.874-9.411h16.196l-0.338 3.138z"></path>
</symbol>
</defs>
</svg>
